<?xml version="1.0" encoding="utf-8"?>
<!-- Generator: Adobe Illustrator 25.4.1, SVG Export Plug-In . SVG Version: 6.00 Build 0)  -->
<svg version="1.1" id="Calque_1" xmlns="http://www.w3.org/2000/svg" xmlns:xlink="http://www.w3.org/1999/xlink" x="0px" y="0px"
	 viewBox="0 0 60 60" style="enable-background:new 0 0 60 60;" xml:space="preserve">
<style type="text/css">
	.st0{fill:#FFEE52;}
	.st1{clip-path:url(#SVGID_00000132773124411437027270000015885863858781759652_);}
</style>
<rect x="8.8" y="8.8" transform="matrix(0.7071 -0.7071 0.7071 0.7071 -12.4264 30)" class="st0" width="42.4" height="42.4"/>
<g>
	<defs>
		<rect id="SVGID_1_" x="14.8" y="14.8" width="30.3" height="30.3"/>
	</defs>
	<clipPath id="SVGID_00000101800917363799383760000011196570484054324662_">
		<use xlink:href="#SVGID_1_"  style="overflow:visible;"/>
	</clipPath>
	<g style="clip-path:url(#SVGID_00000101800917363799383760000011196570484054324662_);">
		<path d="M30.1,35.5c3,0,5.5-2.5,5.5-5.5c0-3-2.5-5.5-5.5-5.5S24.6,27,24.6,30C24.6,33,27,35.5,30.1,35.5z"/>
		<path d="M45.2,28.6h-2.7c-0.3-2.8-1.6-5.5-3.6-7.5c-2-2-4.7-3.3-7.5-3.6v-2.7h-2.8v2.8c-2.8,0.3-5.4,1.6-7.4,3.6
			c-2,2-3.2,4.6-3.5,7.4h-2.9v2.8h2.9c0.3,2.8,1.6,5.3,3.5,7.3c2,2,4.5,3.2,7.3,3.5v2.9h2.8v-2.9c2.8-0.3,5.4-1.5,7.4-3.5
			c2-2,3.3-4.6,3.6-7.4h2.8V28.6z M31.4,39.5c-0.2,0-0.3,0-0.5,0.1c-0.3,0-0.5,0-0.8,0c-0.3,0-0.5,0-0.8,0c-0.2,0-0.5,0-0.7-0.1
			c-2-0.3-3.9-1.3-5.4-2.7c-1.5-1.5-2.4-3.3-2.7-5.4c0-0.2-0.1-0.5-0.1-0.7c0-0.3,0-0.5,0-0.8c0-0.3,0-0.5,0-0.8
			c0-0.2,0-0.4,0.1-0.5c0.3-2.1,1.2-4,2.7-5.5c1.5-1.5,3.4-2.5,5.4-2.8c0.2,0,0.5-0.1,0.7-0.1c0.3,0,0.5,0,0.8,0c0.3,0,0.5,0,0.8,0
			c0.2,0,0.4,0,0.5,0.1c2.1,0.3,4,1.2,5.5,2.7c1.5,1.5,2.5,3.4,2.7,5.5c0,0.2,0,0.3,0.1,0.5c0,0.3,0,0.5,0,0.8c0,0.3,0,0.5,0,0.8
			c0,0.2,0,0.5-0.1,0.7c-0.3,2.1-1.3,3.9-2.8,5.4C35.3,38.3,33.4,39.2,31.4,39.5z"/>
	</g>
</g>
</svg>
