<svg width="18" height="18" viewBox="0 0 18 18" fill="none" xmlns="http://www.w3.org/2000/svg">
<path d="M9.04494 12.2625C10.8468 12.2625 12.3074 10.8018 12.3074 9C12.3074 7.19817 10.8468 5.7375 9.04494 5.7375C7.24311 5.7375 5.78244 7.19817 5.78244 9C5.78244 10.8018 7.24311 12.2625 9.04494 12.2625Z" fill="#000000"/>
<path d="M18 8.19H16.38C16.204 6.50767 15.4552 4.93692 14.2592 3.74084C13.0631 2.54476 11.4923 1.79601 9.81 1.62V0H8.1675V1.6425C6.50962 1.84351 4.96873 2.60022 3.79604 3.78925C2.62336 4.97828 1.88805 6.5295 1.71 8.19H0V9.8325H1.7325C1.93203 11.4698 2.67416 12.9932 3.8405 14.1595C5.00683 15.3258 6.53017 16.068 8.1675 16.2675V18H9.81V16.2675C11.4705 16.0895 13.0217 15.3541 14.2108 14.1815C15.3998 13.0088 16.1565 11.4679 16.3575 9.81H18V8.19ZM9.81 14.625C9.6975 14.6475 9.6075 14.6475 9.495 14.67C9.34577 14.6887 9.19535 14.6962 9.045 14.6925C8.88717 14.6962 8.72927 14.6887 8.5725 14.67C8.4375 14.6475 8.3025 14.6475 8.1675 14.625C6.96271 14.44 5.84835 13.8755 4.98645 13.0136C4.12455 12.1516 3.56004 11.0373 3.375 9.8325C3.34889 9.69897 3.33384 9.56351 3.33 9.4275C3.31129 9.27073 3.30377 9.11283 3.3075 8.955C3.30377 8.80465 3.31129 8.65423 3.33 8.505C3.33393 8.39871 3.34901 8.29313 3.375 8.19C3.53847 6.96739 4.09388 5.83072 4.95794 4.95043C5.822 4.07014 6.94814 3.49369 8.1675 3.3075C8.30103 3.28139 8.43649 3.26634 8.5725 3.2625C8.72927 3.24379 8.88717 3.23627 9.045 3.24C9.19535 3.23627 9.34577 3.24379 9.495 3.2625C9.60129 3.26643 9.70686 3.28151 9.81 3.3075C11.0541 3.46008 12.2118 4.023 13.1001 4.90725C13.9885 5.7915 14.5567 6.94663 14.715 8.19C14.7375 8.3025 14.7375 8.3925 14.76 8.505C14.7787 8.65423 14.7862 8.80465 14.7825 8.955C14.7862 9.11283 14.7787 9.27073 14.76 9.4275C14.7375 9.5625 14.7375 9.6975 14.715 9.8325C14.5201 11.052 13.9379 12.1764 13.0546 13.0394C12.1713 13.9025 11.0337 14.4584 9.81 14.625Z" fill="#000000"/>
</svg>
