<svg width="31" height="31" viewBox="0 0 31 31" fill="none" xmlns="http://www.w3.org/2000/svg">
<g clip-path="url(#clip0_30:71)">
<path d="M15.6725 21.0168C18.6654 21.0168 21.0916 18.5906 21.0916 15.5977C21.0916 12.6049 18.6654 10.1786 15.6725 10.1786C12.6796 10.1786 10.2534 12.6049 10.2534 15.5977C10.2534 18.5906 12.6796 21.0168 15.6725 21.0168Z" fill="black"/>
<path d="M30.5474 14.2526H27.8565C27.5642 11.4582 26.3205 8.8491 24.3338 6.86238C22.347 4.87566 19.738 3.63197 16.9436 3.33961V0.648743H14.2154V3.37698C11.4616 3.71087 8.90211 4.96778 6.95425 6.94279C5.00639 8.91779 3.78503 11.4944 3.48928 14.2526H0.648926V16.9808H3.52665C3.85809 19.7004 5.09078 22.2307 7.02809 24.1681C8.9654 26.1054 11.4957 27.3381 14.2154 27.6695V30.5472H16.9436V27.6695C19.7017 27.3737 22.2784 26.1524 24.2534 24.2045C26.2284 22.2567 27.4853 19.6972 27.8192 16.9434H30.5474V14.2526ZM16.9436 24.9413C16.7567 24.9786 16.6072 24.9786 16.4204 25.016C16.1725 25.0471 15.9226 25.0596 15.6729 25.0534C15.4107 25.0596 15.1485 25.0471 14.8881 25.016C14.6638 24.9786 14.4396 24.9786 14.2154 24.9413C12.2142 24.6339 10.3632 23.6962 8.93155 22.2646C7.49991 20.833 6.56224 18.982 6.25489 16.9808V16.9808C6.21153 16.759 6.18653 16.534 6.18014 16.3081C6.14906 16.0477 6.13657 15.7854 6.14277 15.5232C6.13657 15.2735 6.14906 15.0236 6.18014 14.7758C6.18667 14.5992 6.21172 14.4239 6.25489 14.2526V14.2526C6.52642 12.2218 7.44897 10.3337 8.88419 8.87154C10.3194 7.40936 12.19 6.45185 14.2154 6.14259V6.14259C14.4372 6.09922 14.6622 6.07422 14.8881 6.06784C15.1485 6.03676 15.4107 6.02427 15.6729 6.03047C15.9226 6.02427 16.1725 6.03676 16.4204 6.06784C16.5969 6.07437 16.7723 6.09942 16.9436 6.14259C19.0101 6.39603 20.9331 7.33105 22.4086 8.79982C23.8841 10.2686 24.828 12.1873 25.0909 14.2526V14.2526C25.1283 14.4394 25.1283 14.5889 25.1657 14.7758C25.1968 15.0236 25.2093 15.2735 25.203 15.5232C25.2092 15.7854 25.1968 16.0477 25.1657 16.3081C25.1283 16.5323 25.1283 16.7565 25.0909 16.9808C24.7671 19.0064 23.8001 20.874 22.3329 22.3076C20.8657 23.7411 18.9761 24.6645 16.9436 24.9413V24.9413Z" fill="black"/>
</g>
<defs>
<clipPath id="clip0_30:71">
<rect width="29.8985" height="29.8985" fill="white" transform="translate(0.648926 0.648743)"/>
</clipPath>
</defs>
</svg>
